/* XPM */
static char *_d64783c88ea4c8098f2dfabbe7c0c9edwoopf4wSJOVAuaa[] = {
/* columns rows colors chars-per-pixel */
"16 16 100 2 ",
"   c None",
".  c black",
"X  c #010101",
"o  c #020202",
"O  c gray1",
"+  c #040404",
"@  c gray2",
"#  c #060606",
"$  c #070707",
"%  c gray3",
"&  c #090909",
"*  c gray5",
"=  c #0E0E0E",
"-  c gray6",
";  c #101010",
":  c #111111",
">  c gray7",
",  c gray8",
"<  c #151515",
"1  c #161616",
"2  c #181818",
"3  c #1E1E1E",
"4  c #202020",
"5  c gray13",
"6  c #222222",
"7  c #232323",
"8  c gray14",
"9  c #252525",
"0  c gray15",
"q  c #272727",
"w  c #282828",
"e  c gray16",
"r  c #2A2A2A",
"t  c gray17",
"y  c #2C2C2C",
"u  c #2D2D2D",
"i  c gray18",
"p  c #2F2F2F",
"a  c gray19",
"s  c #313131",
"d  c #323232",
"f  c gray20",
"g  c #353535",
"h  c gray22",
"j  c #3A3A3A",
"k  c gray23",
"l  c #3C3C3C",
"z  c gray24",
"x  c #3E3E3E",
"c  c #3F3F3F",
"v  c #414141",
"b  c #434343",
"n  c #444444",
"m  c gray27",
"M  c #464646",
"N  c gray28",
"B  c #484848",
"V  c gray29",
"C  c #4C4C4C",
"Z  c #4E4E4E",
"A  c #505050",
"S  c gray32",
"D  c #565656",
"F  c #585858",
"G  c #5B5B5B",
"H  c #5D5D5D",
"J  c gray37",
"K  c #5F5F5F",
"L  c #606060",
"P  c #646464",
"I  c #656565",
"U  c #6A6A6A",
"Y  c #6F6F6F",
"T  c #747474",
"R  c #767676",
"E  c #777777",
"W  c #7B7B7B",
"Q  c #7C7C7C",
"!  c #7E7E7E",
"~  c gray50",
"^  c #808080",
"/  c #818181",
"(  c #888888",
")  c #8B8B8B",
"_  c #8D8D8D",
"`  c #8E8E8E",
"'  c #909090",
"]  c gray57",
"[  c #929292",
"{  c #939393",
"}  c #9A9A9A",
"|  c #9D9D9D",
" . c gray63",
".. c #A5A5A5",
"X. c #C8C8C8",
"o. c gray79",
"O. c #D0D0D0",
"+. c #DADADA",
"@. c #E9E9E9",
"#. c white",
/* pixels */
"            ` / ~ )             ",
"        E N u 8 7 8 x U         ",
"    ..F 8 7 e C N 7 , , b '     ",
"    F 8 8 u ~ X.F x 3 * % g     ",
"  E e 7 e I +.#.| e g * X X N   ",
"  B 7 8 x E @.X.O.| C 7 X X , D ",
"' a 7 u K ' B * , L  .S X X @ k ",
"/ e 7 a ~ x X X X X S ~ * X X a ",
"/ 8 8 b C a X X X X K K e X X a ",
"` u N K e 8 X X X : S u I u @ k ",
"  b b ` / x @ X X : a ( { u : B ",
"  Y 8 N ) L % X X % F ~ a @ e   ",
"    B , 7 x e : , a a * X 2     ",
"    } N * @ 2 8 8 : X X 2 N     ",
"        K 7 @ X X @ : e         ",
"          ` K b k k B           "
};
