/* XPM */
static char *_fcc2f0c29bb45748e76308c5faed8e9As4uGLALHbzjhGd2[] = {
/* columns rows colors chars-per-pixel */
"64 64 246 2 ",
"   c None",
".  c black",
"X  c #010101",
"o  c #020202",
"O  c gray1",
"+  c #040404",
"@  c gray2",
"#  c #060606",
"$  c #070707",
"%  c gray3",
"&  c #090909",
"*  c gray4",
"=  c #0B0B0B",
"-  c #0C0C0C",
";  c gray5",
":  c #0E0E0E",
">  c gray6",
",  c #101010",
"<  c #111111",
"1  c gray7",
"2  c #131313",
"3  c gray8",
"4  c #151515",
"5  c #161616",
"6  c gray9",
"7  c #181818",
"8  c #191919",
"9  c gray10",
"0  c #1B1B1B",
"q  c gray11",
"w  c #1D1D1D",
"e  c #1E1E1E",
"r  c gray12",
"t  c #202020",
"y  c gray13",
"u  c #222222",
"i  c #232323",
"p  c gray14",
"a  c #252525",
"s  c gray15",
"d  c #272727",
"f  c #282828",
"g  c gray16",
"h  c #2A2A2A",
"j  c gray17",
"k  c #2C2C2C",
"l  c #2D2D2D",
"z  c gray18",
"x  c #2F2F2F",
"c  c gray19",
"v  c #313131",
"b  c #323232",
"n  c gray20",
"m  c #343434",
"M  c #353535",
"N  c gray21",
"B  c #373737",
"V  c gray22",
"C  c #393939",
"Z  c #3A3A3A",
"A  c gray23",
"S  c #3C3C3C",
"D  c gray24",
"F  c #3E3E3E",
"G  c #3F3F3F",
"H  c gray25",
"J  c #414141",
"K  c gray26",
"L  c #434343",
"P  c #444444",
"I  c gray27",
"U  c #464646",
"Y  c gray28",
"T  c #484848",
"R  c #494949",
"E  c gray29",
"W  c #4B4B4B",
"Q  c #4C4C4C",
"!  c gray30",
"~  c #4E4E4E",
"^  c gray31",
"/  c #505050",
"(  c #515151",
")  c gray32",
"_  c #535353",
"`  c gray33",
"'  c #555555",
"]  c #565656",
"[  c gray34",
"{  c #585858",
"}  c gray35",
"|  c #5A5A5A",
" . c #5B5B5B",
".. c gray36",
"X. c #5D5D5D",
"o. c gray37",
"O. c #5F5F5F",
"+. c #606060",
"@. c gray38",
"#. c #626262",
"$. c gray39",
"%. c #646464",
"&. c #656565",
"*. c gray40",
"=. c #676767",
"-. c #686868",
";. c DimGray",
":. c #6A6A6A",
">. c gray42",
",. c #6C6C6C",
"<. c #6D6D6D",
"1. c gray43",
"2. c gray44",
"3. c #717171",
"4. c #727272",
"5. c gray45",
"6. c #747474",
"7. c gray46",
"8. c #767676",
"9. c #777777",
"0. c gray47",
"q. c #797979",
"w. c gray48",
"e. c #7B7B7B",
"r. c #7C7C7C",
"t. c gray49",
"y. c #7E7E7E",
"u. c gray50",
"i. c #808080",
"p. c #818181",
"a. c gray51",
"s. c #838383",
"d. c #848484",
"f. c gray52",
"g. c #868686",
"h. c gray53",
"j. c #888888",
"k. c #898989",
"l. c gray54",
"z. c #8B8B8B",
"x. c gray55",
"c. c #8E8E8E",
"v. c gray56",
"b. c #909090",
"n. c gray57",
"m. c #929292",
"M. c #939393",
"N. c gray58",
"B. c #959595",
"V. c gray59",
"C. c #979797",
"Z. c #989898",
"A. c gray60",
"S. c #9A9A9A",
"D. c #9B9B9B",
"F. c gray61",
"G. c #9D9D9D",
"H. c gray62",
"J. c #9F9F9F",
"K. c #A0A0A0",
"L. c gray63",
"P. c #A2A2A2",
"I. c gray64",
"U. c #A4A4A4",
"Y. c #A5A5A5",
"T. c gray65",
"R. c #A7A7A7",
"E. c gray66",
"W. c #A9A9A9",
"Q. c #AAAAAA",
"!. c gray67",
"~. c #ACACAC",
"^. c gray68",
"/. c #AEAEAE",
"(. c #AFAFAF",
"). c gray69",
"_. c #B1B1B1",
"`. c #B2B2B2",
"'. c gray70",
"]. c #B4B4B4",
"[. c gray71",
"{. c #B6B6B6",
"}. c #B7B7B7",
"|. c gray72",
" X c #B9B9B9",
".X c gray73",
"XX c #BBBBBB",
"oX c #BCBCBC",
"OX c gray74",
"+X c gray",
"@X c gray75",
"#X c #C0C0C0",
"$X c #C1C1C1",
"%X c gray76",
"&X c #C3C3C3",
"*X c gray77",
"=X c #C5C5C5",
"-X c #C6C6C6",
";X c gray78",
":X c #C8C8C8",
">X c gray79",
",X c #CACACA",
"<X c #CBCBCB",
"1X c gray80",
"2X c #CDCDCD",
"3X c #CECECE",
"4X c gray81",
"5X c #D0D0D0",
"6X c gray82",
"7X c #D2D2D2",
"8X c LightGray",
"9X c gray83",
"0X c #D5D5D5",
"qX c gray84",
"wX c #D7D7D7",
"eX c #D8D8D8",
"rX c gray85",
"tX c #DADADA",
"yX c gray86",
"uX c gainsboro",
"iX c #DFDFDF",
"pX c gray88",
"aX c #E1E1E1",
"sX c #E2E2E2",
"dX c gray89",
"fX c #E4E4E4",
"gX c gray90",
"hX c #E7E7E7",
"jX c #EAEAEA",
"kX c gray92",
"lX c #ECECEC",
"zX c gray93",
"xX c #EEEEEE",
"cX c #EFEFEF",
"vX c gray94",
"bX c #F1F1F1",
"nX c #F4F4F4",
"mX c gray96",
"MX c #F6F6F6",
"NX c #F8F8F8",
"BX c gray98",
"VX c #FBFBFB",
"CX c gray99",
"ZX c #FDFDFD",
"AX c #FEFEFE",
"SX c white",
/* pixels */
"                                                                                                                                ",
"                                                  9X1X-X%X%XoXoXoXoXoXoX-X<X7X                                                  ",
"                                            1X%X.X.X}.'.^.K.G.G.Z.G.K.!.^.}.}..XoX<X                                            ",
"                                      9X-X.X.X^.C.9.O.P V v k p g g k M H ] -.z.U.}..XoX1X                                      ",
"                                  7XoX.X'.C.-.F g i w i w i i w w i w w w 9 9 w v ] d.^.}..X<X                                  ",
"                                %X.X'.z.^ g i i i i i w w i i w i w w i w w w w w 3 w V 2.U.'..X7X                              ",
"                            <X.X'.x.R p i i i i i i i i i i i i w i w w w w w 9 9 9 9 3 3 M 9.!.'.oX                            ",
"                          %X}.U.$.g i i i i i i i w i i i w w w i w w i w w w 9 w 9 9 9 3 3 3 H x.'.}.9X                        ",
"                      yXoX}.x.F i i p p p i i i i i i i i i i i w w i w w w 9 9 9 9 9 3 3 3 3 < i -.^.'.1X                      ",
"                    7X.X'.9.k i p p p p p i i i i i w i w w 9 w w 9 w w w w w 9 9 9 9 3 9 3 3 < : : ^ K.'.-X                    ",
"                  9X.X}.-.g p p p p p p p i i i i i i w p R 9.d.q.( p w w w w 9 9 9 9 3 3 3 < < : : & V K.^.%X                  ",
"                yX.X}.$.p p p p p p p p p i i i i i i ^ K.'.b.d.C.'.U.^ w 9 9 9 3 9 9 3 3 3 < < : : : # M G.^.<X                ",
"                .X}.-.p p p g p p p p p i i i i i p t..X1.$.K.<X.Xx.z.}.q.i 9 9 9 9 3 3 3 3 < : : : & & . v G.^.<X              ",
"              %X.Xq.p g p p p p p p p p i i i i g C.K.H b.vXSXmX$.k V M U.b.p 9 9 3 9 3 3 < : : & & & # # . H K.U.              ",
"            1X}.z.k p p g p p g p p p p p i i k G.b.V '.SXSXSXcXv . . . < b.G.g 3 3 3 3 < < : : & & # # # . . ( G.U.            ",
"            .XU.F i p p p p p p p p p p p i g C.b.k }.SXSXSXSXSXi.. . . . : x.Z.i 3 3 3 < < : : & # # # . . . # 1.C.U.          ",
"          %X}.O.p p p p g p p p p p p p p i i.K.i U.SXSXSXSXSXSXcX] . . . . : Z.d.9 3 < < : : : & # # . . . . . i i.x.          ",
"        7X.Xx.g g p p p p p p g p p p p i $.'.p t.SXSXSXSXSXSXSXSXaXP . . . . 9 !.-.< < < : & & & # # . . . . . . R d.x.        ",
"        oX'.^ p p p p p p p p p p p p p H }.F ^ cXSXSXSXSXSXSXSXSXSXyXF . . . . v }.H : : : & # # # . . . . . . . : 1.q.        ",
"      9X.Xz.g p p g p p g p p p p p p k U.-.i 1XSXSXSXSXSXSXSXSXSXSXSXiXP . . . . ] !.i : & & # # . . . . . . . . . V 9.t.      ",
"      %X}.( i p g p p g p p p p p i i q.G.< C.SXSXSXSXSXSXSXSXSXSXSXSXSXaX] . . . # z.i.: & & # . . . . . . . . . . : $.1.      ",
"      oXC.k p p p p p p p p p p p i R .Xk i t.2.<XSXSXSXSXSXSXSXSXSXSXSXSXkX$.. w & w '.H # & # . . . . . . . . . . . F &.2.    ",
"    1X.X-.i p p p p p p p p p p p p K.1.. . # } iXSXSXSXSXSXfX9XcXSXSXSXSXSXcX&.p ( . } K.< # . . . . . . . . . . . . 9 O.&.    ",
"    %X'.P p g p g p p p p p p p i } ^.< . 3 b.mXSXSXSXmX%X9.v 9 V 9..XcXSXSXSXcX&.9.H & K.] . . . . . . . . . . . . . # R O.    ",
"    oXZ.g p p p p p p p p p p i p K.O.. w !.SXSXSXfXG.R < . . . . . : V b.aXSXSXfXz.!.3 P !.: . . . . . . . . . . . . . v } -.  ",
"  9X.Xq.i i p p p p p p p p p i R '.3 : U.SXSXkXb.k . . . . . . . . . . . k x.kXSXiX7Xt.& G.^ . . . . . . . . . . . . . w ] $.  ",
"  1X}.O.i i p p p p p p p p i i t.d.. 9.SXSX-XH . . . . . . . . . . . . . . # P -XSXNXaXg ( Z.# . . . . . . . . . . . . : ( }   ",
"  -X'.R i p p p p p p p i i i p U.P w yXSXoXi . . . . . . . . . . . . . . . . . w '.SXSXz.3 ^.g . . . . . . . . . . . . & ^ }   ",
"  %X^.F i i p p p p p p i i i M '.i O.SXfXM . . . . . . . . . . . . . . . . . . . w oXSX9Xw d.&.. . . . . . . . . . . . . P }   ",
"  %XU.M i p p p p p i i i i i P '.< z.SXG.. . . . . . . . . . . . . . . . . . . . . H cXSX^ ^ b.. . . . . . . . . . . . . F }   ",
"  oXK.k i p i i i i i i i i i P ^.< Z.SX1.. . . . . . . . . . . . . . . . . . . . . # ^.SXt.k U.: . . . . . . . . . . . . V ] -.",
"  oXG.g i i i i i i i i i i i H ^.< d.SX&.. . . . . . . . . . . . . . . . . . . . . . t.SXb.w !.9 . . . . . . . . . . . . M } -.",
"  oXG.k i i i i i i i i i i w H .X9 } SXq.. . . . . . . . . . . . . . . . . . . . # . q.SXi.i !.3 . . . . . . . . . . . . M } -.",
"  oXG.k i i i i i i i w i i V !.t.. i aXK.. . . . . . . . . . . . . . . . . . . . k ^ K.SX( g oXg . . . . . . . . . . . . M } -.",
"  %XK.v i i i i i i i i w P '.t.& . . b.9X9 . . . . . . . . . . . . . . . . . . . ^ aXvX.X< # -.'.M . . . . . . . . . . . F ]   ",
"  %X!.M w i i i i i i i } .X-.. . . . g 9X( . . . . . . . . . . . . . . . . . . . 9.SXfXM . . . ( }.$.# . . . . . . . . . H }   ",
"  %X'.H i i i i w i i -..XR # V w . . . 1.Z.# . . . . . . . . . . . . . . . . . & }.SX&.. . . 9 M M U.b.w . . . . . . . # R }   ",
"  <X}.} w i i w i w -..XM . v 7XH . . . : z.v . . . . . . . . . . . . . . . . . V cXC.# . . . F 9XM : t.'.k . . . . . . : ( O.  ",
"  7X}.2.w i i w i R .XV # i ( aXk . . # p p ( # . . . . . . . . . . . . . . . # G.oX9 . . v : p aX] w : O.!.3 . . . . . 9 ] O.  ",
"    oXx.i i i i w d.q.. V '.R aX^ . # # O.w < & . . . . . . . . . . . . . . . P oXk . . 9 -.# P fX^ ^.P . Z.] . . . . . g ] &.  ",
"    oX!.V w i i w x.] . P vXC.7XK.# < g R 1.. . . . . . . . . . . . . . . . 3 b.H . . . 1.O.. G.9XC.mX] . x.$.. . . . # H }     ",
"    -X}.O.w i w w 1.U.3 : .XSXmXvXR # -.p Z.v . . . . . . . . . . . . . . # ( F . . . v }.w H cXmXSXoX< F '.p . . . . < ( }     ",
"      .Xz.p w i w p b.U.p k 7XSXSX1Xi O.&.F b.3 . . . . . . . . . . . . . : w . . . < ^.q.i <XSXSX<XM ( }.^ . . . . . g ] $.    ",
"      %X^.H w w i w p q..X( M oXSXSX^.M U.V H -.< . . . . . . . . . . . . . . . . # z.^.p !.SXNX!.F i.^.V . . . . . # P }       ",
"      1X.X9.w i w w w w ( '.x.V d.cXSXU.&.U.i w g . . . . . . . . . . . . . . . & t.}.V G.SX9X2.] !.d.9 . . . . . . i ] O.      ",
"        .X!.V 9 w w w w 9 k d.}.$.^ '.mX!.9.C.p . . . . . . . . . . . . . . . 3 q.x.M K.aXz.^ z.!.R . . . . . . . # H ] &.      ",
"        <X}.q.w w w 9 w 9 9 9 R U.G.P ] ^.G.] -.k . . . . . . . . . . . . . 3 ] H i i.d.H 1.'.9.3 . . . . . . . . i ] }         ",
"          oX^.R 9 w w 9 9 9 9 3 i -.}.i.g M g : w # . . . . . . . . . . . . : # . w k ] ^.b.k . . . . . . . . . : P }           ",
"          7X}.b.g 9 w 9 9 9 9 3 3 3 v d.}.-.3 . . . . . . . . . . . . . . . . . & P K.U.P # . . . . . . . . . . v ] $.          ",
"            %X}.2.9 9 9 9 3 3 9 3 3 < < F Z.^.O.< . . . . . . . . . . . . . & P G.!.] & . . . . . . . . . . . i ( }             ",
"              .X'.} 3 9 3 9 3 3 3 3 < : : < P G.!.] < . . . . . . . . . : ^ K.!.} : . . . . . . . . . . . . < ^ } -.            ",
"              yX}.U.P 3 9 3 9 3 < < < : : & & < R G.!.$.w . . . . . i &.!.K.( : . . . . . . . . . . . . . & P ] $.              ",
"                1X}.U.H < 3 3 3 < < : : : & & # . & H b.'.i.R V $.b.'.z.F & . . . . . . . . . . . . . . : H ] O.                ",
"                  -X}.U.H < < < < : : : & & # # # . . . g &.9.2.9.] w . . . . . . . . . . . . . . . . & P ] O.                  ",
"                    -X'.U.R < < : : : & # # # . . . . . . . . . . . . . . . . . . . . . . . . . . . 3 P ] }                     ",
"                      1X'.!.$.9 & : & & # # # . . . . . . . . . . . . . . . . . . . . . . . . . . i ^ ] $.                      ",
"                        7X}.^.d.k & & & # . . . . . . . . . . . . . . . . . . . . . . . . . . & M ( ] $.                        ",
"                            .X'.K.O.9 . . # . . . . . . . . . . . . . . . . . . . . . . . # i R ] } -.                          ",
"                              <X}.^.C.( 9 . . . . . . . . . . . . . . . . . . . . . . # i H ] ] O.                              ",
"                                  oX'.^.C.$.g & . . . . . . . . . . . . . . . . # < g P ( } O.                                  ",
"                                      %X'.!.Z.t.] v 9 : . . . . . . . # # : 9 k H ( ] } O.-.                                    ",
"                                          oX!.G.C.z.i.2.$.] ^ H F F H P R ( ] ] } } $.                                          ",
"                                                ^.G.b.z.i.q.2.1.-.$.O.} } O.O.$.                                                ",
"                                                            z.i.q.9.                                                            "
};
