/* XPM */
static char *_3d31490f2ae46c0efae69079b4b65e91aBZzBMFUTshenzO[] = {
/* columns rows colors chars-per-pixel */
"32 32 190 2 ",
"   c None",
".  c black",
"X  c #010101",
"o  c #020202",
"O  c gray1",
"+  c #040404",
"@  c gray2",
"#  c #060606",
"$  c #070707",
"%  c gray3",
"&  c #090909",
"*  c gray4",
"=  c #0B0B0B",
"-  c #0C0C0C",
";  c gray5",
":  c #0E0E0E",
">  c gray6",
",  c #101010",
"<  c #111111",
"1  c gray7",
"2  c #131313",
"3  c gray8",
"4  c #151515",
"5  c #161616",
"6  c gray9",
"7  c #181818",
"8  c #191919",
"9  c gray10",
"0  c #1B1B1B",
"q  c gray11",
"w  c #1D1D1D",
"e  c #1E1E1E",
"r  c gray12",
"t  c #202020",
"y  c gray13",
"u  c #222222",
"i  c #232323",
"p  c gray14",
"a  c #252525",
"s  c gray15",
"d  c #272727",
"f  c gray16",
"g  c #2A2A2A",
"h  c gray17",
"j  c #2C2C2C",
"k  c #2D2D2D",
"l  c gray18",
"z  c gray19",
"x  c #313131",
"c  c #323232",
"v  c #343434",
"b  c #353535",
"n  c #373737",
"m  c gray22",
"M  c #393939",
"N  c #3A3A3A",
"B  c gray23",
"V  c #3C3C3C",
"C  c gray24",
"Z  c #3E3E3E",
"A  c #3F3F3F",
"S  c gray25",
"D  c #434343",
"F  c #444444",
"G  c gray27",
"H  c #464646",
"J  c gray28",
"K  c #484848",
"L  c #494949",
"P  c gray29",
"I  c #4B4B4B",
"U  c #4C4C4C",
"Y  c gray30",
"T  c #4E4E4E",
"R  c gray31",
"E  c gray32",
"W  c #535353",
"Q  c gray33",
"!  c #555555",
"~  c #565656",
"^  c #585858",
"/  c gray35",
"(  c #5A5A5A",
")  c #5B5B5B",
"_  c gray36",
"`  c #5D5D5D",
"'  c gray37",
"]  c #5F5F5F",
"[  c #606060",
"{  c gray38",
"}  c #626262",
"|  c gray39",
" . c #646464",
".. c #656565",
"X. c gray40",
"o. c #676767",
"O. c #686868",
"+. c DimGray",
"@. c #6A6A6A",
"#. c #6C6C6C",
"$. c #6D6D6D",
"%. c gray43",
"&. c #6F6F6F",
"*. c gray44",
"=. c #717171",
"-. c #727272",
";. c gray45",
":. c #747474",
">. c gray46",
",. c #767676",
"<. c #777777",
"1. c gray47",
"2. c #797979",
"3. c gray48",
"4. c #7B7B7B",
"5. c #7C7C7C",
"6. c gray49",
"7. c #7E7E7E",
"8. c gray50",
"9. c #808080",
"0. c #818181",
"q. c gray51",
"w. c #838383",
"e. c #848484",
"r. c #888888",
"t. c #898989",
"y. c gray54",
"u. c #8B8B8B",
"i. c gray55",
"p. c #8D8D8D",
"a. c gray57",
"s. c #929292",
"d. c #939393",
"f. c gray58",
"g. c gray59",
"h. c #989898",
"j. c gray60",
"k. c #9A9A9A",
"l. c gray61",
"z. c #9D9D9D",
"x. c #9F9F9F",
"c. c #A0A0A0",
"v. c gray63",
"b. c gray64",
"n. c #A4A4A4",
"m. c #A5A5A5",
"M. c gray66",
"N. c gray67",
"B. c #ACACAC",
"V. c gray68",
"C. c #AEAEAE",
"Z. c gray69",
"A. c #B1B1B1",
"S. c #B2B2B2",
"D. c gray70",
"F. c #B4B4B4",
"G. c #B6B6B6",
"H. c gray73",
"J. c #BCBCBC",
"K. c gray74",
"L. c gray",
"P. c #C0C0C0",
"I. c #C1C1C1",
"U. c gray76",
"Y. c #C3C3C3",
"T. c gray77",
"R. c #C5C5C5",
"E. c #C6C6C6",
"W. c gray78",
"Q. c #C8C8C8",
"!. c gray79",
"~. c #CACACA",
"^. c #CDCDCD",
"/. c LightGray",
"(. c #D5D5D5",
"). c #D7D7D7",
"_. c gray86",
"`. c gainsboro",
"'. c #DFDFDF",
"]. c #E2E2E2",
"[. c gray90",
"{. c gray94",
"}. c #F1F1F1",
"|. c #F3F3F3",
" X c #F4F4F4",
".X c gray96",
"XX c #F6F6F6",
"oX c gray99",
"OX c #FDFDFD",
"+X c white",
/* pixels */
"                            ~.T.T.T.                            ",
"                    ~.A.k.q.%.X.X.%.6.f.C.I.                    ",
"                I.m.;.D g i r r r 9 r i m X.k.J.                ",
"              A.;.b i i i i r r r r r 9 9 6 a ' m.              ",
"          ~.c.R i i i i i i r a i 9 r 9 9 6 6 1 b r.I.          ",
"        ~.k.A i a i a i i b X.q.6.E i 9 9 6 1 1 : r q.J.        ",
"        c.A i a i a i i P 1.c.^.1.X.X.a 6 6 1 : = + 9 q.        ",
"      A.R i a a a i i P :.N.oX.XD . b @.r 1 1 : = + . i r.      ",
"    T.:.a a a a a i A %.k.+X+X+XJ.r . m ' 6 : = = . . . A r.    ",
"    m.m a a a i i j %.1.{.+X+X+X+XA.r . R P = = + . . . = '     ",
"  ~.;.a a a a a i } P i.{.+X+X+X+X+XJ.a 1 } a + . . . . . j %.  ",
"  F.G i a i a i A } 1 q..X.XI.e.x.'.+XT.~ A ( + . . . . . : ~   ",
"  k.j a i a a i } b d.{.m.G : . . i @./.).6.' i . . . . . . A   ",
"  q.i i a i a j X.@.'.~ + . . . . . . r c.[.} R . . . . . . j } ",
"~.;.i i i i i m } C.1.. . . . . . . . . 1 F.f.' = . . . . . i ' ",
"T.@.i i i i i A } C.G . . . . . . . . . . ( H.' 9 . . . . . r ( ",
"T.X.r i i i i ( R e.~ . . . . . . . . . = %.c.} a . . . . . r ( ",
"~.%.r i i i ' ( = A :.. . . . . . . . . A ).P i X.a . . . . i ' ",
"  q.i i i } R P 9 . ~ 9 . . . . . . . . 1.q.. r } ' A . . . g } ",
"  f.g r P ~ A d.x = x 9 . . . . . . . i 1.: i m d.G ' a . . m   ",
"  A.A r R G ;._.1.i ~ 9 . . . . . . . D 6 9 ~ 6.'.1.( g . = P   ",
"  T.@.9 a X.} A.].;.' D = . . . . . + = + @.:._.A.%.P . . i (   ",
"    x.j 9 i E :.x.H.i.G : . . . . . . = ~ 6.N.k.%.x . . + A     ",
"    J.X.r 9 9 x } 6.%.A 1 . . . . . . 6 j @.1.R : . . . i (     ",
"      N.A 9 9 6 6 A X.G 1 . . . . . . i ( ( r . . . . : P       ",
"        d.g 6 1 1 : 6 D X.G 6 . = j ( ( a . . . . . + A '       ",
"        T.r.a : : : = + : m ' E ( R i . . . . . . + m (         ",
"          I.i.x = = = . . . . = + . . . . . . . : A '           ",
"              c.E 1 . . . . . . . . . . . . + r P '             ",
"                H.r.P 6 . . . . . . . . = i D ~                 ",
"                    A.i.@.G x g i a j A P (                     ",
"                          f.q.:.X.} }                           "
};
